<?xml version="1.0" encoding="utf-8"?>
<!-- Generator: Adobe Illustrator 18.1.1, SVG Export Plug-In . SVG Version: 6.00 Build 0)  -->
<svg version="1.1" xmlns="http://www.w3.org/2000/svg" xmlns:xlink="http://www.w3.org/1999/xlink" x="0px" y="0px"
	 viewBox="0 0 460 452" enable-background="new 0 0 460 452" xml:space="preserve">
<g id="Brackets_4" display="none">
</g>
<g id="Brackets_3">
</g>
<g id="Brackets_2" display="none">
</g>
<g id="Brackets" display="none">
</g>
<g id="Boxes" display="none">
</g>
<g id="Layer_1">
	<g id="Layer_2">
	</g>
</g>
<g id="Text">
	<g>
		<g>
			<g>
				<g>
					<g>
						<path fill="#EB0029" d="M232,229.9V91.4h1.4v0c2.4,0,4.3-2.3,4.3-5.1s-1.9-5.1-4.3-5.1v0H232v-1.7h0c0-2.8-1.9-5-4.3-5
							s-4.3,2.3-4.3,5h0v1.7H222v0c-2.4,0-4.3,2.3-4.3,5.1s1.9,5.1,4.3,5.1v0h1.4v138.5H232z"/>
					</g>
				</g>
			</g>
			<g>
				<g>
					<g>
						<path fill="#EB0029" d="M228.7,224.6H90.4v-1.4h0c0-2.4-2.3-4.3-5.1-4.3s-5.1,1.9-5.1,4.3h0v1.4h-1.7v0c-2.8,0-5,1.9-5,4.3
							s2.2,4.3,5,4.3v0h1.7v1.4h0c0,2.4,2.3,4.3,5.1,4.3s5.1-1.9,5.1-4.3h0v-1.4h138.4L228.7,224.6L228.7,224.6z"/>
					</g>
				</g>
			</g>
			<g>
				<g>
					<g>
						<path fill="#EB0029" d="M227,233.3h142.8v1.4h0c0,2.4,2.4,4.3,5.3,4.3s5.2-1.9,5.3-4.3h0v-1.4h1.7v0c2.9,0,5.2-1.9,5.2-4.3
							c0-2.4-2.3-4.3-5.2-4.3v0h-1.7v-1.4h0c0-2.4-2.4-4.3-5.3-4.3s-5.2,1.9-5.3,4.3h0v1.4h-143L227,233.3z"/>
					</g>
				</g>
			</g>
			<g>
				<g>
					<g>
						<g>
							<path fill="#EB0029" d="M223.6,227.2v141h-1.4v0c-2.4,0-4.3,2.3-4.3,5.2s1.9,5.2,4.3,5.2v0h1.4v1.7h0c0,2.8,1.9,5.1,4.3,5.1
								s4.3-2.3,4.3-5.1h0v-1.7h1.4v0c2.4,0,4.3-2.3,4.3-5.2c0-2.8-1.9-5.2-4.3-5.2v0h-1.4v-141H223.6z"/>
						</g>
					</g>
				</g>
			</g>
		</g>
		<g>
			<g>
				<path fill="#231F20" d="M246.1,312.4c0,12.4,10.1,22.6,22.6,22.6s22.6-10.1,22.6-22.6c0-9.5-5.9-17.6-14.2-20.9l1.3-4.5
					l22.3,23.2c-0.3,0.7-0.4,1.4-0.4,2.2c0,3.1,2.5,5.6,5.6,5.6c2.3,0,4.3-1.4,5.2-3.4h2.8c1.1,11.4,10.8,20.3,22.5,20.3
					c12.4,0,22.6-10.1,22.6-22.6s-10.1-22.6-22.6-22.6c-3.4,0-6.5,0.8-9.4,2.1l-7.6-12.9l1.2-3.7c0.7,0.2,1.4,0.3,2.1,0.3
					c4.5,0,7.4-4.5,7.7-5c0.4-0.7,0.4-1.6,0-2.3c-0.4-0.7-1.1-1.1-2-1.1h-16.9c-1.1,0-2.1,0.8-2.2,2c-0.1,1.1,0.6,2.2,1.7,2.5
					c0,0,2.5,0.6,5.5,1.8l-1.3,3.9h-34l2.1-7.3c0.2-0.7,0.1-1.4-0.4-2c-0.4-0.6-1.1-0.9-1.8-0.9c-2.1,0-2.8-1.2-2.8-2.3
					c0-0.6,0.2-1.1,0.6-1.5c0.5-0.5,1.3-0.7,2.2-0.7h6.8c1.2,0,2.3-1,2.3-2.3s-1-2.3-2.3-2.3h-6.8c-2.8,0-4.5,1.1-5.4,2.1
					c-1.2,1.2-1.9,2.9-1.9,4.7c0,2.6,1.5,5.3,4.5,6.3l-5.5,18.9c-1.3-0.2-2.7-0.4-4.1-0.4C256.2,289.8,246.1,299.9,246.1,312.4z
					 M323.1,294.2c-5,3.7-8.5,9.4-9.2,15.9h-2.8c-0.3-0.7-0.8-1.4-1.4-1.9l7.8-23.5L323.1,294.2z M326,299.1l6.5,11.1h-12.8
					C320.2,305.7,322.6,301.7,326,299.1z M319.6,314.6h16.8c0.8,0,1.6-0.4,2-1.1s0.4-1.6,0-2.3l-8.5-14.5c2-0.8,4.2-1.3,6.5-1.3
					c9.3,0,16.9,7.6,16.9,16.9s-7.6,16.9-16.9,16.9C327.8,329.3,320.7,322.9,319.6,314.6z M279.8,282L279.8,282l33.9-0.1l-8.3,24.9
					c-0.5,0-1,0.1-1.4,0.3L279.8,282z M251.7,312.4c0-9.3,7.6-16.9,16.9-16.9c0.8,0,1.7,0.1,2.5,0.2l-4.7,16.1
					c-0.3,1.2,0.3,2.4,1.5,2.8c0.2,0.1,0.4,0.1,0.6,0.1c1,0,1.9-0.6,2.2-1.6l4.7-16.1c5.9,2.6,10.1,8.6,10.1,15.5
					c0,9.3-7.6,16.9-16.9,16.9C259.3,329.3,251.7,321.7,251.7,312.4z"/>
			</g>
		</g>
		<g>
			<g>
				<path fill="#231F20" d="M327.3,203.8c6.5-0.9,12.9-6.5,12.9-13.3v-49.8c0-7-7.1-13.5-16.9-13.5h-20.8h-20.8
					c-9.8,0-16.9,6.4-16.9,13.5v49.8c0,6.8,6.5,12.4,12.9,13.3L327.3,203.8L327.3,203.8z M291.6,132.3c0-1.2,1.3-2.3,2.8-2.3h8.2
					h8.2c1.5,0,2.8,1,2.8,2.3v3.9c0,1.2-1.2,2.3-2.8,2.3h-8.2h-8.2c-1.6,0-2.8-1-2.8-2.3L291.6,132.3L291.6,132.3z M278.5,164.1
					c-4.7,0-4.6-2.7-4.6-7v-8.9c0-3.7-0.9-7,4.6-7h24.1h23.3c5.5,0,5.4,3.3,5.4,7v8.9c0,4.3,0,7-4.6,7h-24.1H278.5z M287.7,189.7
					c0,3.4-2.8,6.2-6.2,6.2s-6.2-2.8-6.2-6.2c0-3.4,2.8-6.2,6.2-6.2S287.7,186.3,287.7,189.7z M329.7,189.7c0,3.4-2.8,6.2-6.2,6.2
					s-6.2-2.8-6.2-6.2c0-3.4,2.8-6.2,6.2-6.2S329.7,186.3,329.7,189.7z"/>
			</g>
		</g>
		<g>
			<g>
				<path fill="#231F20" d="M227.5,418c-50.2,0-97.3-19.5-132.8-55c-35.5-35.5-55-82.6-55-132.8s19.5-97.3,55-132.8
					s82.6-55,132.8-55s97.3,19.5,132.8,55c35.5,35.5,55,82.6,55,132.8s-19.5,97.3-55,132.8C324.8,398.4,277.7,418,227.5,418z
					 M227.5,50c-48.1,0-93.4,18.7-127.4,52.8c-34,34-52.8,79.3-52.8,127.4s18.7,93.4,52.8,127.4c34,34,79.3,52.8,127.4,52.8
					s93.4-18.7,127.4-52.8c34-34,52.8-79.3,52.8-127.4s-18.7-93.4-52.8-127.4C320.9,68.7,275.6,50,227.5,50z"/>
			</g>
		</g>
		<g>
			<g>
				<path fill="#231F20" d="M228.7,447.2c-58.1,0-112.8-22.6-153.9-63.8C33.6,342.3,11,287.7,11,229.5c0-58.1,22.6-112.8,63.8-153.9
					c41.1-41.1,95.8-63.8,153.9-63.8s112.8,22.6,153.9,63.8c41.1,41.1,63.8,95.8,63.8,153.9s-22.6,112.8-63.8,153.9
					C341.5,424.6,286.8,447.2,228.7,447.2z M228.7,27c-54.1,0-104.9,21.1-143.2,59.3s-59.3,89.1-59.3,143.2s21.1,104.9,59.3,143.2
					S174.6,432,228.7,432c54.1,0,104.9-21.1,143.2-59.3c38.2-38.2,59.3-89.1,59.3-143.2c0-54.1-21.1-104.9-59.3-143.2
					C333.6,48.1,282.8,27,228.7,27z"/>
			</g>
		</g>
		<path fill="#231F20" d="M120.4,138.8h67.5c0,0,3.6,1.2,6,18.4h4.6c0,0,3.3,0.2,3.4,5s-3,5.2-3,5.2h-3.3v24.5c0,0-0.5,5.2-8.6,4
			v5.6c0,0-0.1,1.9-7.7,1.8c-7.6-0.1-7.6-1.5-7.6-1.5v-5.9h-34.9v5.6c0,0,0.4,1.9-7.7,1.8s-7.7-1.8-7.7-1.8v-5.6H118
			c0,0-4.3,0.4-5.2-4.3v-24.1c0,0-3.1,0.3-4.1-0.3s-2.2-1-2.2-5.3s2.2-4.3,2.2-4.3s0.1-0.6,5.8-0.4
			C114.4,157.3,117.7,138.8,120.4,138.8z M182.8,142.4c-3,0-54.3,0-57.3,0c-3,0-8.7,18-6.5,20.2s68.1,2.1,70.3,0
			C191.4,160.5,185.7,142.4,182.8,142.4z M125,173c-3.2,0-5.7,2.6-5.7,5.7c0,3.2,2.6,5.7,5.7,5.7c3.2,0,5.7-2.6,5.7-5.7
			S128.1,173,125,173z M134.4,173.7c0-0.2-0.2-0.4-0.5-0.4h-0.3c-0.3,0-0.5,0.2-0.5,0.4V184c0,0.2,0.2,0.4,0.5,0.4h0.3
			c0.3,0,0.5-0.2,0.5-0.4V173.7z M177.5,178.7c0,3.2,2.6,5.7,5.7,5.7s5.7-2.6,5.7-5.7c0-3.2-2.6-5.7-5.7-5.7
			S177.5,175.5,177.5,178.7z M173.9,184c0,0.2,0.2,0.4,0.5,0.4h0.3c0.3,0,0.5-0.2,0.5-0.4v-10.3c0-0.2-0.2-0.4-0.5-0.4h-0.3
			c-0.3,0-0.5,0.2-0.5,0.4V184z"/>
		<path fill="#231F20" d="M119.6,255.6h69c0,0,4,0.6,4.4,4.7v64.1c0,0,0.3,6.5-8.1,5.6v6c0,0-0.8,1.5-6.6,1.6
			c-5.8,0.1-7.8-1-7.8-1.6s0-6,0-6h-32.6v5.5c0,0-0.1,2.4-7.2,2.1c-7.1-0.3-7.2-1.6-7.2-2.1s0-5.5,0-5.5s-7.2,1.2-8.1-4.7v-65
			C115.2,260.3,115.8,255.6,119.6,255.6z M176.2,314c0-0.7-0.6-1.2-1.2-1.2h-41.6c-0.7,0-1.2,0.6-1.2,1.2c0,0.7,0.6,1.2,1.2,1.2H175
			C175.6,315.2,176.2,314.6,176.2,314z M176.1,316.9c0-0.3-0.3-0.6-0.6-0.6h-42.7c-0.3,0-0.6,0.3-0.6,0.6s0.3,0.6,0.6,0.6h42.7
			C175.8,317.5,176.1,317.2,176.1,316.9z M176.1,319.3c0-0.3-0.3-0.6-0.6-0.6h-42.7c-0.3,0-0.6,0.3-0.6,0.6s0.3,0.6,0.6,0.6h42.7
			C175.8,319.9,176.1,319.6,176.1,319.3z M175.5,304.9c0,2.5,2,4.6,4.6,4.6s4.6-2,4.6-4.6c0-2.5-2-4.6-4.6-4.6
			C177.5,300.3,175.5,302.3,175.5,304.9z M123.6,304.9c0,2.5,2,4.6,4.6,4.6c2.5,0,4.6-2,4.6-4.6c0-2.5-2-4.6-4.6-4.6
			C125.7,300.3,123.6,302.3,123.6,304.9z M122.5,265.6v22.5c0,3.7,3.5,3.7,3.5,3.7h56c4.2,0,3.9-4,3.9-4v-21.4c0-4.3-4.1-4-4.1-4
			h-55.8C121.9,262.3,122.5,265.6,122.5,265.6z"/>
	</g>
</g>
</svg>
