<?xml version="1.0" encoding="utf-8"?>
<!-- Generator: Adobe Illustrator 18.1.1, SVG Export Plug-In . SVG Version: 6.00 Build 0)  -->
<svg version="1.1" xmlns="http://www.w3.org/2000/svg" xmlns:xlink="http://www.w3.org/1999/xlink" x="0px" y="0px"
	 viewBox="0 0 449 444" enable-background="new 0 0 449 444" xml:space="preserve">
<g id="Brackets_4" display="none">
</g>
<g id="Brackets_3">
</g>
<g id="Brackets_2" display="none">
</g>
<g id="Brackets" display="none">
</g>
<g id="Boxes" display="none">
</g>
<g id="Layer_1">
	<g id="Layer_2">
	</g>
</g>
<g id="Text">
	<g>
		<g>
			<g>
				<g>
					<g>
						<path fill="#FFFFFF" d="M228.1,224.9V86.4h1.4v0c2.4,0,4.3-2.3,4.3-5.1s-1.9-5.1-4.3-5.1v0h-1.4v-1.7h0c0-2.8-1.9-5-4.3-5
							s-4.3,2.3-4.3,5h0v1.7h-1.4v0c-2.4,0-4.3,2.3-4.3,5.1s1.9,5.1,4.3,5.1v0h1.4v138.5H228.1z"/>
					</g>
				</g>
			</g>
			<g>
				<g>
					<g>
						<path fill="#FFFFFF" d="M224.8,219.6H86.5v-1.4h0c0-2.4-2.3-4.3-5.1-4.3s-5.1,1.9-5.1,4.3h0v1.4h-1.7v0c-2.8,0-5,1.9-5,4.3
							s2.2,4.3,5,4.3v0h1.7v1.4h0c0,2.4,2.3,4.3,5.1,4.3s5.1-1.9,5.1-4.3h0v-1.4h138.4L224.8,219.6L224.8,219.6z"/>
					</g>
				</g>
			</g>
			<g>
				<g>
					<g>
						<path fill="#FFFFFF" d="M223.1,228.3h142.8v1.4h0c0,2.4,2.4,4.3,5.3,4.3s5.2-1.9,5.3-4.3h0v-1.4h1.7v0c2.9,0,5.2-1.9,5.2-4.3
							c0-2.4-2.3-4.3-5.2-4.3v0h-1.7v-1.4h0c0-2.4-2.4-4.3-5.3-4.3s-5.2,1.9-5.3,4.3h0v1.4h-143L223.1,228.3z"/>
					</g>
				</g>
			</g>
			<g>
				<g>
					<g>
						<g>
							<path fill="#FFFFFF" d="M219.7,222.2v141h-1.4v0c-2.4,0-4.3,2.3-4.3,5.2s1.9,5.2,4.3,5.2v0h1.4v1.7h0c0,2.8,1.9,5.1,4.3,5.1
								s4.3-2.3,4.3-5.1h0v-1.7h1.4v0c2.4,0,4.3-2.3,4.3-5.2c0-2.8-1.9-5.2-4.3-5.2v0h-1.4v-141H219.7z"/>
						</g>
					</g>
				</g>
			</g>
		</g>
		<g>
			<g>
				<path fill="#FFFFFF" d="M242.2,307.4c0,12.4,10.1,22.6,22.6,22.6c12.4,0,22.6-10.1,22.6-22.6c0-9.5-5.9-17.6-14.2-20.9l1.3-4.5
					l22.3,23.2c-0.3,0.7-0.4,1.4-0.4,2.2c0,3.1,2.5,5.6,5.6,5.6c2.3,0,4.3-1.4,5.2-3.4h2.8c1.1,11.4,10.8,20.3,22.5,20.3
					c12.4,0,22.6-10.1,22.6-22.6s-10.1-22.6-22.6-22.6c-3.4,0-6.5,0.8-9.4,2.1l-7.6-12.9l1.2-3.7c0.7,0.2,1.4,0.3,2.1,0.3
					c4.5,0,7.4-4.5,7.7-5c0.4-0.7,0.4-1.6,0-2.3c-0.4-0.7-1.1-1.1-2-1.1h-16.9c-1.1,0-2.1,0.8-2.2,2c-0.1,1.1,0.6,2.2,1.7,2.5
					c0,0,2.5,0.6,5.5,1.8l-1.3,3.9h-34l2.1-7.3c0.2-0.7,0.1-1.4-0.4-2c-0.4-0.6-1.1-0.9-1.8-0.9c-2.1,0-2.8-1.2-2.8-2.3
					c0-0.6,0.2-1.1,0.6-1.5c0.5-0.5,1.3-0.7,2.2-0.7h6.8c1.2,0,2.3-1,2.3-2.3s-1-2.3-2.3-2.3h-6.8c-2.8,0-4.5,1.1-5.4,2.1
					c-1.2,1.2-1.9,2.9-1.9,4.7c0,2.6,1.5,5.3,4.5,6.3l-5.5,18.9c-1.3-0.2-2.7-0.4-4.1-0.4C252.3,284.8,242.2,294.9,242.2,307.4z
					 M319.2,289.2c-5,3.7-8.5,9.4-9.2,15.9h-2.8c-0.3-0.7-0.8-1.4-1.4-1.9l7.8-23.5L319.2,289.2z M322.1,294.1l6.5,11.1h-12.8
					C316.3,300.7,318.7,296.7,322.1,294.1z M315.7,309.6h16.8c0.8,0,1.6-0.4,2-1.1s0.4-1.6,0-2.3l-8.5-14.5c2-0.8,4.2-1.3,6.5-1.3
					c9.3,0,16.9,7.6,16.9,16.9s-7.6,16.9-16.9,16.9C323.9,324.3,316.8,317.9,315.7,309.6z M275.9,277L275.9,277l33.9-0.1l-8.3,24.9
					c-0.5,0-1,0.1-1.4,0.3L275.9,277z M247.8,307.4c0-9.3,7.6-16.9,16.9-16.9c0.8,0,1.7,0.1,2.5,0.2l-4.7,16.1
					c-0.3,1.2,0.3,2.4,1.5,2.8c0.2,0.1,0.4,0.1,0.6,0.1c1,0,1.9-0.6,2.2-1.6l4.7-16.1c5.9,2.6,10.1,8.6,10.1,15.5
					c0,9.3-7.6,16.9-16.9,16.9C255.4,324.3,247.8,316.7,247.8,307.4z"/>
			</g>
		</g>
		<g>
			<g>
				<path fill="#FFFFFF" d="M323.4,198.8c6.5-0.9,12.9-6.5,12.9-13.3v-49.8c0-7-7.1-13.5-16.9-13.5h-20.8h-20.8
					c-9.8,0-16.9,6.4-16.9,13.5v49.8c0,6.8,6.5,12.4,12.9,13.3L323.4,198.8L323.4,198.8z M287.7,127.3c0-1.2,1.3-2.3,2.8-2.3h8.2
					h8.2c1.5,0,2.8,1,2.8,2.3v3.9c0,1.2-1.2,2.3-2.8,2.3h-8.2h-8.2c-1.6,0-2.8-1-2.8-2.3L287.7,127.3L287.7,127.3z M274.6,159.1
					c-4.7,0-4.6-2.7-4.6-7v-8.9c0-3.7-0.9-7,4.6-7h24.1h23.3c5.5,0,5.4,3.3,5.4,7v8.9c0,4.3,0,7-4.6,7h-24.1H274.6z M283.8,184.7
					c0,3.4-2.8,6.2-6.2,6.2s-6.2-2.8-6.2-6.2c0-3.4,2.8-6.2,6.2-6.2S283.8,181.3,283.8,184.7z M325.8,184.7c0,3.4-2.8,6.2-6.2,6.2
					s-6.2-2.8-6.2-6.2c0-3.4,2.8-6.2,6.2-6.2S325.8,181.3,325.8,184.7z"/>
			</g>
		</g>
		<g>
			<g>
				<path fill="#FFFFFF" d="M223.6,413c-50.2,0-97.3-19.5-132.8-55c-35.5-35.5-55-82.6-55-132.8s19.5-97.3,55-132.8
					s82.6-55,132.8-55s97.3,19.5,132.8,55c35.5,35.5,55,82.6,55,132.8s-19.5,97.3-55,132.8C320.9,393.4,273.8,413,223.6,413z
					 M223.6,45c-48.1,0-93.4,18.7-127.4,52.8c-34,34-52.8,79.3-52.8,127.4s18.7,93.4,52.8,127.4c34,34,79.3,52.8,127.4,52.8
					S317,386.7,351,352.6c34-34,52.8-79.3,52.8-127.4S385.1,131.8,351,97.7C317,63.7,271.7,45,223.6,45z"/>
			</g>
		</g>
		<g>
			<g>
				<path fill="#FFFFFF" d="M224.8,442.2c-58.1,0-112.8-22.6-153.9-63.8C29.7,337.3,7.1,282.7,7.1,224.5
					c0-58.1,22.6-112.8,63.8-153.9C112,29.5,166.6,6.9,224.8,6.9s112.8,22.6,153.9,63.8c41.1,41.1,63.8,95.8,63.8,153.9
					s-22.6,112.8-63.8,153.9C337.6,419.6,282.9,442.2,224.8,442.2z M224.8,22c-54.1,0-104.9,21.1-143.2,59.3s-59.3,89.1-59.3,143.2
					s21.1,104.9,59.3,143.2S170.7,427,224.8,427c54.1,0,104.9-21.1,143.2-59.3c38.2-38.2,59.3-89.1,59.3-143.2
					c0-54.1-21.1-104.9-59.3-143.2C329.7,43.1,278.9,22,224.8,22z"/>
			</g>
		</g>
		<path fill="#FFFFFF" d="M116.5,133.8H184c0,0,3.6,1.2,6,18.4h4.6c0,0,3.3,0.2,3.4,5s-3,5.2-3,5.2h-3.3v24.5c0,0-0.5,5.2-8.6,4v5.6
			c0,0-0.1,1.9-7.7,1.8c-7.6-0.1-7.6-1.5-7.6-1.5v-5.9h-34.9v5.6c0,0,0.4,1.9-7.7,1.8s-7.7-1.8-7.7-1.8v-5.6h-3.3
			c0,0-4.3,0.4-5.2-4.3v-24.1c0,0-3.1,0.3-4.1-0.3s-2.2-1-2.2-5.3s2.2-4.3,2.2-4.3s0.1-0.6,5.8-0.4
			C110.5,152.3,113.8,133.8,116.5,133.8z M178.9,137.4c-3,0-54.3,0-57.3,0s-8.7,18-6.5,20.2s68.1,2.1,70.3,0
			C187.5,155.5,181.8,137.4,178.9,137.4z M121.1,168c-3.2,0-5.7,2.6-5.7,5.7c0,3.2,2.6,5.7,5.7,5.7c3.2,0,5.7-2.6,5.7-5.7
			S124.2,168,121.1,168z M130.5,168.7c0-0.2-0.2-0.4-0.5-0.4h-0.3c-0.3,0-0.5,0.2-0.5,0.4V179c0,0.2,0.2,0.4,0.5,0.4h0.3
			c0.3,0,0.5-0.2,0.5-0.4V168.7z M173.6,173.7c0,3.2,2.6,5.7,5.7,5.7s5.7-2.6,5.7-5.7c0-3.2-2.6-5.7-5.7-5.7
			S173.6,170.5,173.6,173.7z M170,179c0,0.2,0.2,0.4,0.5,0.4h0.3c0.3,0,0.5-0.2,0.5-0.4v-10.3c0-0.2-0.2-0.4-0.5-0.4h-0.3
			c-0.3,0-0.5,0.2-0.5,0.4V179z"/>
		<path fill="#FFFFFF" d="M115.7,250.6h69c0,0,4,0.6,4.4,4.7v64.1c0,0,0.3,6.5-8.1,5.6v6c0,0-0.8,1.5-6.6,1.6
			c-5.8,0.1-7.8-1-7.8-1.6s0-6,0-6h-32.6v5.5c0,0-0.1,2.4-7.2,2.1c-7.1-0.3-7.2-1.6-7.2-2.1s0-5.5,0-5.5s-7.2,1.2-8.1-4.7v-65
			C111.3,255.3,111.9,250.6,115.7,250.6z M172.3,309c0-0.7-0.6-1.2-1.2-1.2h-41.6c-0.7,0-1.2,0.6-1.2,1.2c0,0.7,0.6,1.2,1.2,1.2
			h41.6C171.7,310.2,172.3,309.6,172.3,309z M172.2,311.9c0-0.3-0.3-0.6-0.6-0.6h-42.7c-0.3,0-0.6,0.3-0.6,0.6s0.3,0.6,0.6,0.6h42.7
			C171.9,312.5,172.2,312.2,172.2,311.9z M172.2,314.3c0-0.3-0.3-0.6-0.6-0.6h-42.7c-0.3,0-0.6,0.3-0.6,0.6s0.3,0.6,0.6,0.6h42.7
			C171.9,314.9,172.2,314.6,172.2,314.3z M171.6,299.9c0,2.5,2,4.6,4.6,4.6s4.6-2,4.6-4.6c0-2.5-2-4.6-4.6-4.6
			C173.6,295.3,171.6,297.3,171.6,299.9z M119.7,299.9c0,2.5,2,4.6,4.6,4.6s4.6-2,4.6-4.6c0-2.5-2-4.6-4.6-4.6
			C121.8,295.3,119.7,297.3,119.7,299.9z M118.6,260.6v22.5c0,3.7,3.5,3.7,3.5,3.7h56c4.2,0,3.9-4,3.9-4v-21.4c0-4.3-4.1-4-4.1-4
			H122C118,257.3,118.6,260.6,118.6,260.6z"/>
	</g>
</g>
</svg>
