<?xml version="1.0" encoding="utf-8"?>
<!-- Generator: Adobe Illustrator 19.1.0, SVG Export Plug-In . SVG Version: 6.00 Build 0)  -->
<svg version="1.1" id="Layer_1" xmlns="http://www.w3.org/2000/svg" xmlns:xlink="http://www.w3.org/1999/xlink" x="0px" y="0px"
	 viewBox="0 0 768 112.8" style="enable-background:new 0 0 768 112.8;" xml:space="preserve">
<style type="text/css">
	.st0{fill:#3F403F;}
	.st1{opacity:0.9;fill:#EC232A;}
	.st2{fill:#FFFFFF;}
	.st3{font-family:'TradeGothicLTStd-Bold';}
	.st4{font-size:42.9296px;}
	.st5{letter-spacing:2.8;}
	.st6{font-size:15.0877px;}
	.st7{opacity:0.9;fill:none;stroke:#EC232A;stroke-width:3;stroke-miterlimit:10;}
</style>
<g>
	<defs>
		<rect id="SVGID_1_" x="585.8" y="112.2" width="185.3" height="471.7"/>
	</defs>
	<clipPath id="SVGID_2_">
		<use xlink:href="#SVGID_1_"  style="overflow:visible;"/>
	</clipPath>
</g>
<rect x="0.9" y="0.6" class="st0" width="772" height="112.2"/>
<rect x="0.9" y="0.6" class="st1" width="127.2" height="112.2"/>
<text transform="matrix(1.085 0 0 1 157.1099 55.0547)" class="st2 st3 st4 st5">TRANSPORTATION</text>
<text transform="matrix(1.085 0 0 1 604.4854 35.4575)"><tspan x="0" y="0" class="st2 st3 st6">Central</tspan><tspan x="0" y="19.7" class="st2 st3 st6">Maryland</tspan><tspan x="0" y="39.5" class="st2 st3 st6">Transportation</tspan><tspan x="0" y="59.2" class="st2 st3 st6">Alliance</tspan></text>
<text transform="matrix(1.085 0 0 1 159.1768 95.3179)" class="st2 st3 st4 st5">REPORT CARD</text>
<g>
	<defs>
		<rect id="SVGID_3_" x="13.6" y="13.1" width="97.9" height="93.1"/>
	</defs>
	<clipPath id="SVGID_4_">
		<use xlink:href="#SVGID_3_"  style="overflow:visible;"/>
	</clipPath>
</g>
<g>
	<defs>
		<rect id="SVGID_5_" x="147.9" y="183.3" width="412" height="306.6"/>
	</defs>
	<clipPath id="SVGID_6_">
		<use xlink:href="#SVGID_5_"  style="overflow:visible;"/>
	</clipPath>
</g>
<line class="st7" x1="588.9" y1="27.5" x2="588.9" y2="93.4"/>
<g>
	<defs>
		<rect id="SVGID_7_" x="15.2" y="14" width="98.6" height="92.8"/>
	</defs>
	<clipPath id="SVGID_8_">
		<use xlink:href="#SVGID_7_"  style="overflow:visible;"/>
	</clipPath>
	<g style="clip-path:url(#SVGID_8_);">
		
			<image style="overflow:visible;" width="1218" height="611" xlink:href="../../../../Dropbox/cmta (1)/cmta_reportcard folder/Links/logo_white.png"  transform="matrix(0.197 0 0 0.1815 15.2324 10.7147)">
		</image>
	</g>
</g>
</svg>
