<?xml version="1.0" encoding="utf-8"?>
<!-- Generator: Adobe Illustrator 17.0.0, SVG Export Plug-In . SVG Version: 6.00 Build 0)  -->
<!DOCTYPE svg PUBLIC "-//W3C//DTD SVG 1.1//EN" "http://www.w3.org/Graphics/SVG/1.1/DTD/svg11.dtd">
<svg version="1.1" id="Layer_1" xmlns="http://www.w3.org/2000/svg" xmlns:xlink="http://www.w3.org/1999/xlink" x="0px" y="0px"
	 width="1218.444px" height="610.833px" viewBox="0 0 1218.444 610.833" enable-background="new 0 0 1218.444 610.833"
	 xml:space="preserve">
<g>
	<g>
		<g>
			<g>
				<path fill="#EB0029" d="M262.78,280.109V141.56h1.409v-0.003c2.353-0.034,4.251-2.304,4.251-5.101s-1.899-5.067-4.251-5.101
					v-0.003h-1.409v-1.68h-0.003c-0.029-2.79-1.943-5.042-4.302-5.042c-2.359,0-4.273,2.252-4.302,5.042h-0.003v1.68h-1.417v0.003
					c-2.353,0.034-4.251,2.304-4.251,5.101s1.899,5.067,4.251,5.101v0.003h1.417v138.549H262.78z"/>
			</g>
		</g>
	</g>
	<g>
		<g>
			<g>
				<path fill="#EB0029" d="M259.497,274.803H121.143v-1.409h-0.003c-0.034-2.353-2.3-4.251-5.094-4.251s-5.06,1.899-5.094,4.251
					h-0.003v1.409h-1.678v0.003c-2.786,0.029-5.034,1.943-5.034,4.302c0,2.359,2.249,4.273,5.034,4.302v0.003h1.678v1.417h0.003
					c0.034,2.353,2.3,4.251,5.094,4.251s5.06-1.899,5.094-4.251h0.003v-1.417h138.353V274.803z"/>
			</g>
		</g>
	</g>
	<g>
		<g>
			<g>
				<path fill="#EB0029" d="M257.776,283.479h142.824v1.409h0.003c0.035,2.353,2.385,4.251,5.282,4.251s5.246-1.899,5.282-4.251
					h0.003v-1.409h1.74v-0.003c2.888-0.029,5.22-1.943,5.22-4.302c0-2.36-2.331-4.273-5.22-4.302v-0.003h-1.74v-1.417h-0.003
					c-0.035-2.353-2.385-4.251-5.282-4.251s-5.246,1.899-5.282,4.251h-0.003v1.417H257.583L257.776,283.479z"/>
			</g>
		</g>
	</g>
	<g>
		<g>
			<g>
				<g>
					<path fill="#EB0029" d="M254.364,277.404v141.022h-1.409v0.003c-2.353,0.035-4.251,2.345-4.251,5.193
						c0,2.848,1.899,5.158,4.251,5.192v0.003h1.409v1.71h0.003c0.029,2.84,1.943,5.132,4.302,5.132c2.359,0,4.273-2.292,4.302-5.132
						h0.003v-1.71h1.417v-0.003c2.353-0.035,4.251-2.345,4.251-5.192c0-2.848-1.899-5.158-4.251-5.193v-0.003h-1.417V277.404
						H254.364z"/>
				</g>
			</g>
		</g>
	</g>
</g>
<g>
	<g>
		<path fill="#231F20" d="M276.876,362.563c0,12.446,10.125,22.571,22.571,22.571s22.571-10.125,22.571-22.571
			c0-9.474-5.873-17.587-14.162-20.93l1.291-4.459l22.334,23.227c-0.276,0.667-0.433,1.395-0.433,2.162
			c0,3.117,2.527,5.643,5.643,5.643c2.312,0,4.295-1.394,5.167-3.386h2.847c1.135,11.391,10.772,20.314,22.456,20.314
			c12.446,0,22.571-10.125,22.571-22.571s-10.125-22.571-22.571-22.571c-3.356,0-6.532,0.756-9.398,2.077l-7.562-12.901l1.22-3.659
			c0.687,0.221,1.387,0.344,2.092,0.344c4.544,0,7.376-4.501,7.683-5.014c0.419-0.697,0.429-1.565,0.028-2.273
			c-0.401-0.708-1.15-1.146-1.964-1.146h-16.928c-1.14,0-2.099,0.849-2.239,1.981c-0.14,1.131,0.586,2.188,1.691,2.466
			c0.032,0.008,2.474,0.629,5.48,1.834l-1.292,3.877h-34.047l2.105-7.272c0.198-0.682,0.063-1.416-0.363-1.984
			c-0.427-0.567-1.095-0.901-1.805-0.901c-2.081,0-2.821-1.166-2.821-2.257c0-0.58,0.216-1.115,0.608-1.508
			c0.491-0.491,1.255-0.749,2.213-0.749h6.771c1.246,0,2.257-1.011,2.257-2.257c0-1.246-1.011-2.257-2.257-2.257h-6.771
			c-2.754,0-4.459,1.126-5.405,2.072c-1.246,1.245-1.931,2.914-1.931,4.699c0,2.617,1.525,5.26,4.468,6.305l-5.475,18.91
			c-1.323-0.242-2.68-0.387-4.072-0.387C287.001,339.992,276.876,350.118,276.876,362.563z M353.872,344.359
			c-5.042,3.692-8.516,9.403-9.168,15.948h-2.847c-0.323-0.738-0.808-1.381-1.397-1.914l7.845-23.534L353.872,344.359z
			 M356.739,349.25l6.481,11.056H350.4C351,355.832,353.347,351.912,356.739,349.25z M350.4,364.821h16.76
			c0.809,0,1.556-0.433,1.958-1.135s0.397-1.565-0.011-2.264l-8.483-14.471c2.013-0.845,4.221-1.315,6.537-1.315
			c9.334,0,16.928,7.594,16.928,16.928c0,9.334-7.594,16.928-16.928,16.928C358.593,379.492,351.509,373.09,350.4,364.821z
			 M310.595,332.168l0.023-0.076h33.85l-8.294,24.88c-0.498,0.046-0.976,0.147-1.428,0.313L310.595,332.168z M282.518,362.563
			c0-9.334,7.594-16.928,16.928-16.928c0.849,0,1.676,0.084,2.492,0.204l-4.66,16.097c-0.348,1.197,0.342,2.449,1.54,2.795
			c0.21,0.061,0.42,0.09,0.629,0.09c0.98,0,1.881-0.642,2.167-1.631l4.662-16.105c5.938,2.632,10.098,8.575,10.098,15.477
			c0,9.334-7.594,16.928-16.928,16.928C290.112,379.492,282.518,371.898,282.518,362.563z"/>
	</g>
</g>
<g>
	<g>
		<path fill="#231F20" d="M358.076,253.934c6.48-0.889,12.941-6.478,12.926-13.301v-49.807c0.016-7.022-7.149-13.479-16.854-13.471
			h-20.777h-20.848c-9.763-0.008-16.928,6.449-16.919,13.471v49.807c-0.009,6.822,6.453,12.413,12.926,13.301H358.076z
			 M322.339,182.5c0.003-1.248,1.289-2.276,2.773-2.294h8.19h8.191c1.486,0.018,2.777,1.046,2.777,2.294v3.909
			c0,1.245-1.218,2.298-2.777,2.294h-8.19h-8.19c-1.552,0.004-2.77-1.049-2.773-2.294V182.5H322.339z M309.24,214.305
			c-4.666-0.023-4.645-2.659-4.635-6.989v-8.942c0.033-3.73-0.875-6.982,4.635-6.989h24.063H356.6
			c5.517,0.008,5.375,3.259,5.402,6.989v8.942c0.015,4.33,0.035,6.967-4.637,6.989h-24.062H309.24z M318.478,239.882
			c0,3.404-2.759,6.163-6.163,6.163s-6.163-2.759-6.163-6.163c0-3.404,2.759-6.163,6.163-6.163S318.478,236.478,318.478,239.882z
			 M360.437,239.882c0,3.404-2.759,6.163-6.163,6.163s-6.163-2.759-6.163-6.163c0-3.404,2.759-6.163,6.163-6.163
			S360.437,236.478,360.437,239.882z"/>
	</g>
</g>
<g>
	<g>
		<path fill="#231F20" d="M258.262,468.154c-50.165,0-97.328-19.535-132.8-55.008c-35.472-35.472-55.007-82.635-55.007-132.8
			s19.535-97.328,55.007-132.8c35.472-35.472,82.635-55.008,132.8-55.008s97.328,19.535,132.8,55.008
			c35.472,35.472,55.008,82.635,55.008,132.8s-19.535,97.328-55.008,132.8C355.59,448.619,308.427,468.154,258.262,468.154z
			 M258.262,100.124c-48.139,0-93.397,18.746-127.436,52.786c-34.039,34.039-52.786,79.297-52.786,127.436
			s18.746,93.397,52.786,127.436c34.039,34.04,79.297,52.786,127.436,52.786s93.397-18.746,127.436-52.786
			c34.04-34.039,52.786-79.297,52.786-127.436s-18.746-93.397-52.786-127.436C351.659,118.87,306.401,100.124,258.262,100.124z"/>
	</g>
</g>
<g>
	<g>
		<path fill="#231F20" d="M259.44,497.385c-58.144,0-112.809-22.643-153.923-63.757c-41.114-41.115-63.757-95.778-63.757-153.923
			c0-58.144,22.643-112.808,63.757-153.923c41.114-41.114,95.778-63.757,153.923-63.757s112.808,22.643,153.923,63.757
			c41.114,41.115,63.757,95.778,63.757,153.923s-22.643,112.809-63.757,153.923C372.248,474.742,317.584,497.385,259.44,497.385z
			 M259.44,77.196c-54.092,0-104.947,21.065-143.196,59.314c-38.249,38.249-59.313,89.103-59.313,143.195
			c0,54.092,21.064,104.947,59.313,143.196s89.103,59.314,143.196,59.314c54.092,0,104.947-21.065,143.195-59.314
			c38.249-38.249,59.314-89.103,59.314-143.196c0-54.092-21.065-104.947-59.314-143.195
			C364.387,98.261,313.532,77.196,259.44,77.196z"/>
	</g>
</g>
<g>
	<path fill="#231F20" d="M564.738,174.365v13.951h-18.409v68.608h-15.781v-68.608h-18.409v-13.951H564.738z"/>
	<path fill="#231F20" d="M567.59,256.924v-62.204h14.063v8.232h0.231c3.314-6.171,7.661-9.373,14.865-9.373v15.55
		c-2.403-0.685-5.146-1.599-7.661-1.599c-4.689,0-7.09,3.542-7.09,6.856v42.538H567.59z"/>
	<path fill="#231F20" d="M604.287,212.899c0.571-6.973,3.431-11.774,7.661-14.865c4.116-3.086,9.721-4.456,15.438-4.456
		c15.321,0,21.152,7.775,21.152,18.864v39.453c0,1.715,0.343,3.431,0.802,5.029h-14.408c-0.343-1.599-0.573-3.542-1.03-6.06
		c-4.23,4.227-9.947,7.201-17.151,7.201c-8.691,0-14.294-4.801-14.294-14.865c0-14.408,13.72-20.579,31.673-25.953v-4.578
		c0-5.374-3.316-7.43-7.432-7.43c-4.344,0-8.003,3.202-8.003,7.658H604.287z M634.13,226.51
		c-8.574,2.974-17.265,7.775-17.265,14.291c0,4.116,2.515,6.516,6.402,6.516c4.347,0,7.432-2.284,10.863-5.714V226.51z"/>
	<path fill="#231F20" d="M662.824,256.924v-62.204h13.949v7.09c5.26-4.573,10.178-8.232,16.123-8.232
		c8.805,0,13.378,4.456,13.378,16.006v47.339h-14.405v-45.741c0-4.116-1.373-6.856-5.26-6.856c-2.974,0-6.29,2.857-9.376,5.603
		v46.994H662.824z"/>
	<path fill="#231F20" d="M747.431,213.701c-1.944-5.714-5.603-8.46-9.949-8.46c-3.317,0-5.831,2.4-5.831,5.603
		c0,9.607,28.128,9.835,28.128,28.359c0,12.347-8.688,18.864-20.696,18.864c-8.691,0-16.466-2.172-23.441-17.722l12.921-3.542
		c1.259,5.831,4.803,9.602,10.52,9.602c4.347,0,6.976-2.055,6.976-5.486c0-11.896-28.128-9.033-28.128-29.963
		c0-11.774,9.49-17.377,19.665-17.377c10.749,0,18.181,6.171,21.726,15.55L747.431,213.701z"/>
	<path fill="#231F20" d="M784.012,194.721v7.546h0.228c2.517-3.887,8.919-8.688,15.321-8.688c11.208,0,15.781,8.688,15.781,24.695
		v15.098c0,16.006-4.573,24.695-15.781,24.695c-3.887,0-7.547-1.827-14.405-6.861v27.674h-14.408v-84.158H784.012z M785.156,242.862
		c2.857,3.086,5.489,4.456,8.688,4.456c3.89,0,7.09-2.512,7.09-14.865v-13.261c0-12.352-3.2-14.865-7.09-14.865
		c-3.2,0-5.831,1.37-8.688,4.456V242.862z"/>
	<path fill="#231F20" d="M826.768,217.132c0-16.463,8.463-23.553,22.87-23.553c14.405,0,22.868,7.09,22.868,23.553v17.382
		c0,16.463-8.463,23.553-22.868,23.553c-14.408,0-22.87-7.09-22.87-23.553V217.132z M841.176,238.172
		c0,4.801,3.431,7.318,8.462,7.318c5.029,0,8.46-2.517,8.46-7.318v-24.7c0-4.801-3.431-7.318-8.46-7.318
		c-5.032,0-8.462,2.517-8.462,7.318V238.172z"/>
	<path fill="#231F20" d="M885.077,256.924v-62.204h14.063v8.232h0.231c3.314-6.171,7.661-9.373,14.865-9.373v15.55
		c-2.403-0.685-5.146-1.599-7.663-1.599c-4.687,0-7.087,3.542-7.087,6.856v42.538H885.077z"/>
	<path fill="#231F20" d="M922.757,209.128v-11.662h5.717v-16.925h14.408v16.925h9.262v11.662h-9.262v31.79
		c0,3.086,2.629,4.573,6.516,4.573c1.03,0,1.949,0,2.862-0.117v12.124c-2.746,0.457-5.491,0.568-8.232,0.568
		c-9.378,0-15.555-3.431-15.555-12.347v-36.59H922.757z"/>
	<path fill="#231F20" d="M961.042,212.899c0.573-6.973,3.431-11.774,7.663-14.865c4.116-3.086,9.719-4.456,15.438-4.456
		c15.321,0,21.152,7.775,21.152,18.864v39.453c0,1.715,0.345,3.431,0.802,5.029h-14.408c-0.345-1.599-0.573-3.542-1.03-6.06
		c-4.233,4.227-9.947,7.201-17.153,7.201c-8.688,0-14.291-4.801-14.291-14.865c0-14.408,13.723-20.579,31.673-25.953v-4.578
		c0-5.374-3.314-7.43-7.43-7.43c-4.349,0-8.008,3.202-8.008,7.658H961.042z M990.888,226.51
		c-8.577,2.974-17.265,7.775-17.265,14.291c0,4.116,2.517,6.516,6.405,6.516c4.344,0,7.43-2.284,10.86-5.714V226.51z"/>
	<path fill="#231F20" d="M1013.405,209.128v-11.662h5.719v-16.925h14.408v16.925h9.262v11.662h-9.262v31.79
		c0,3.086,2.629,4.573,6.516,4.573c1.03,0,1.944,0,2.857-0.117v12.124c-2.746,0.457-5.486,0.568-8.232,0.568
		c-9.379,0-15.55-3.431-15.55-12.347v-36.59H1013.405z"/>
	<path fill="#231F20" d="M1053.193,183.972v-13.033h14.408v13.033H1053.193z M1067.601,194.721v62.204h-14.408v-62.204H1067.601z"/>
	<path fill="#231F20" d="M1076.812,217.132c0-16.463,8.46-23.553,22.868-23.553s22.868,7.09,22.868,23.553v17.382
		c0,16.463-8.46,23.553-22.868,23.553s-22.868-7.09-22.868-23.553V217.132z M1091.214,238.172c0,4.801,3.431,7.318,8.465,7.318
		c5.029,0,8.46-2.517,8.46-7.318v-24.7c0-4.801-3.431-7.318-8.46-7.318c-5.034,0-8.465,2.517-8.465,7.318V238.172z"/>
	<path fill="#231F20" d="M1135.118,256.924v-62.204h13.951v7.09c5.258-4.573,10.175-8.232,16.123-8.232
		c8.805,0,13.378,4.456,13.378,16.006v47.339h-14.408v-45.741c0-4.116-1.375-6.856-5.263-6.856c-2.969,0-6.288,2.857-9.373,5.603
		v46.994H1135.118z"/>
	<path fill="#231F20" d="M511.339,376.45l20.467-82.559h20.239l19.896,82.559h-15.093l-4.002-17.382h-21.84l-4.461,17.382H511.339z
		 M533.864,345.117h15.666l-7.661-33.388h-0.231L533.864,345.117z"/>
	<path fill="#231F20" d="M582.109,293.89h14.408v82.559h-14.408V293.89z"/>
	<path fill="#231F20" d="M613.894,293.89h14.408v82.559h-14.408V293.89z"/>
	<path fill="#231F20" d="M645.678,303.497v-13.033h14.408v13.033H645.678z M660.086,314.246v62.204h-14.408v-62.204H660.086z"/>
	<path fill="#231F20" d="M674.261,332.425c0.571-6.973,3.431-11.774,7.661-14.865c4.116-3.086,9.721-4.456,15.438-4.456
		c15.321,0,21.152,7.775,21.152,18.864v39.453c0,1.715,0.343,3.431,0.802,5.029h-14.408c-0.343-1.599-0.573-3.542-1.03-6.06
		c-4.23,4.227-9.947,7.201-17.151,7.201c-8.691,0-14.294-4.801-14.294-14.865c0-14.408,13.72-20.579,31.673-25.953v-4.578
		c0-5.374-3.316-7.43-7.432-7.43c-4.344,0-8.003,3.202-8.003,7.658H674.261z M704.104,346.036
		c-8.574,2.974-17.265,7.775-17.265,14.291c0,4.116,2.515,6.516,6.402,6.516c4.347,0,7.432-2.284,10.863-5.714V346.036z"/>
	<path fill="#231F20" d="M732.798,376.45v-62.204h13.949v7.09c5.26-4.573,10.178-8.232,16.123-8.232
		c8.805,0,13.378,4.456,13.378,16.006v47.339h-14.405v-45.741c0-4.116-1.373-6.856-5.26-6.856c-2.974,0-6.29,2.857-9.376,5.603
		v46.994H732.798z"/>
	<path fill="#231F20" d="M820.148,335.744v-2.746c0-4.801-3.431-7.318-8.46-7.318c-5.032,0-8.462,2.517-8.462,7.318v24.7
		c0,4.801,3.431,7.318,8.462,7.318c5.029,0,8.46-2.517,8.46-7.318v-3.887h14.408v0.228c0,16.463-8.463,23.553-22.868,23.553
		c-14.408,0-22.87-7.09-22.87-23.553v-17.382c0-16.463,8.463-23.553,22.87-23.553c14.063,0,22.525,6.861,22.754,22.639H820.148z"/>
	<path fill="#231F20" d="M860.39,348.776v8.237c0,6.171,3.659,8.917,8.462,8.917c6.06,0,8.46-3.887,8.46-8.688h14.408
		c-0.685,12.804-8.346,20.351-22.868,20.351c-13.723,0-22.87-8.46-22.87-22.066V335.17c0-13.606,9.148-22.066,22.87-22.066
		c13.378,0,22.868,8.46,22.868,21.152v14.519H860.39z M877.312,337.114v-3.431c0-5.486-2.629-8.917-8.46-8.917
		c-5.834,0-8.462,3.431-8.462,8.917v3.431H877.312z"/>
</g>
<path fill="#231F20" d="M151.157,189.015h67.477c0,0,3.612,1.186,5.967,18.418l4.629,0c0,0,3.328,0.234,3.369,4.957
	c0.041,4.723-2.963,5.187-2.963,5.187h-3.331v24.465c0,0-0.467,5.17-8.636,3.965v5.587c0,0-0.079,1.94-7.697,1.837
	c-7.618-0.102-7.584-1.495-7.584-1.495v-5.929h-34.87v5.587c0,0,0.357,1.947-7.697,1.841c-8.054-0.106-7.697-1.841-7.697-1.841
	v-5.573h-3.331c0,0-4.285,0.411-5.243-4.301v-24.142c0,0-3.113,0.293-4.138-0.25c-1.025-0.543-2.224-1.049-2.202-5.26
	s2.223-4.261,2.223-4.261s0.073-0.553,5.757-0.373C145.189,207.433,148.437,189.015,151.157,189.015z M213.538,192.584
	c-2.983,0-54.267,0-57.25,0c-2.983,0-8.709,18.04-6.508,20.241c2.201,2.201,68.117,2.149,70.266,0
	C222.195,210.677,216.521,192.584,213.538,192.584z M155.753,223.123c-3.167,0-5.734,2.567-5.734,5.734
	c0,3.167,2.567,5.734,5.734,5.734c3.167,0,5.734-2.567,5.734-5.734C161.487,225.69,158.919,223.123,155.753,223.123z
	 M165.139,223.838c0-0.232-0.238-0.42-0.531-0.42h-0.333c-0.293,0-0.531,0.188-0.531,0.42v10.333c0,0.232,0.238,0.42,0.531,0.42
	h0.333c0.293,0,0.531-0.188,0.531-0.42V223.838z M208.322,228.857c0,3.167,2.567,5.734,5.734,5.734s5.734-2.567,5.734-5.734
	c0-3.167-2.567-5.734-5.734-5.734S208.322,225.69,208.322,228.857z M204.67,234.171c0,0.232,0.238,0.42,0.531,0.42h0.333
	c0.293,0,0.531-0.188,0.531-0.42v-10.333c0-0.232-0.238-0.42-0.531-0.42h-0.333c-0.293,0-0.531,0.188-0.531,0.42V234.171z"/>
<path fill="#231F20" d="M150.387,305.784h69.039c0,0,3.983,0.552,4.364,4.693v64.076c0,0,0.294,6.463-8.107,5.622v5.98
	c0,0-0.768,1.507-6.615,1.565c-5.846,0.059-7.841-1.042-7.841-1.565c0-0.523,0-5.98,0-5.98h-32.64v5.457
	c0,0-0.127,2.359-7.228,2.091c-7.101-0.268-7.228-1.639-7.228-2.091s0-5.457,0-5.457s-7.178,1.189-8.113-4.738v-64.96
	C146.018,310.477,146.597,305.784,150.387,305.784z M206.973,364.128c0-0.688-0.557-1.245-1.245-1.245h-41.645
	c-0.688,0-1.245,0.558-1.245,1.245c0,0.688,0.557,1.245,1.245,1.245h41.645C206.415,365.374,206.973,364.816,206.973,364.128z
	 M206.895,367.062c0-0.344-0.279-0.623-0.623-0.623h-42.736c-0.344,0-0.623,0.279-0.623,0.623s0.279,0.623,0.623,0.623h42.736
	C206.616,367.684,206.895,367.406,206.895,367.062z M206.895,369.443c0-0.344-0.279-0.623-0.623-0.623h-42.736
	c-0.344,0-0.623,0.279-0.623,0.623s0.279,0.623,0.623,0.623h42.736C206.616,370.065,206.895,369.787,206.895,369.443z
	 M206.273,355.039c0,2.522,2.045,4.567,4.567,4.567c2.522,0,4.567-2.045,4.567-4.567c0-2.522-2.045-4.567-4.567-4.567
	C208.317,350.473,206.273,352.517,206.273,355.039z M154.403,355.039c0,2.522,2.045,4.567,4.567,4.567
	c2.522,0,4.567-2.045,4.567-4.567c0-2.522-2.045-4.567-4.567-4.567C156.448,350.473,154.403,352.517,154.403,355.039z
	 M153.223,315.745v22.519c0,3.681,3.481,3.698,3.481,3.698h56.046c4.203,0.037,3.852-4.023,3.852-4.023v-21.437
	c0-4.331-4.142-3.996-4.142-3.996h-55.755C152.699,312.507,153.223,315.745,153.223,315.745z"/>
</svg>
